inDegrees=no
num_controls=7
num_derivatives=13
num_iterations=108
num_multipliers=7
num_parameters=0
num_slacks=7
num_states=26
objective=0.455011
objective_accelerations=0.045984
objective_balance=0.000905
objective_effort=0.036237
objective_height=0.365873
objective_ligament=0.006012
solver_duration=1251.124270
status=Solve_Succeeded
success=true
DataType=double
version=3
OpenSimVersion=4.5
endheader
time	/jointset/ground_pelvis/pelvis_tilt/value	/jointset/ground_pelvis/pelvis_tx/value	/jointset/ground_pelvis/pelvis_ty/value	/jointset/hip_r/hip_flexion_r/value	/jointset/hip_r/hip_adduction_r/value	/jointset/hip_r/hip_rotation_r/value	/jointset/back/lumbar_extension/value	/jointset/patellofemoral_r/patellar_flexion_r/value	/jointset/knee_r/knee_flexion_r/value	/jointset/knee_r/knee_adduction_r/value	/jointset/knee_r/knee_rotation_r/value	/jointset/ankle_r/ankle_angle_r/value	/jointset/subtalar_r/subtalar_angle_r/value	/jointset/ground_pelvis/pelvis_tilt/speed	/jointset/ground_pelvis/pelvis_tx/speed	/jointset/ground_pelvis/pelvis_ty/speed	/jointset/hip_r/hip_flexion_r/speed	/jointset/hip_r/hip_adduction_r/speed	/jointset/hip_r/hip_rotation_r/speed	/jointset/back/lumbar_extension/speed	/jointset/patellofemoral_r/patellar_flexion_r/speed	/jointset/knee_r/knee_flexion_r/speed	/jointset/knee_r/knee_adduction_r/speed	/jointset/knee_r/knee_rotation_r/speed	/jointset/ankle_r/ankle_angle_r/speed	/jointset/subtalar_r/subtalar_angle_r/speed	/forceset/tau_hip_flexion_r	/forceset/tau_hip_adduction_r	/forceset/tau_hip_rotation_r	/forceset/tau_knee_flexion_r	/forceset/tau_ankle_angle_r	/forceset/tau_subtalar_angle_r	/forceset/tau_lumbar_extension	lambda_cid13_p0	lambda_cid14_p0	lambda_cid14_p1	lambda_cid14_p2	lambda_cid14_p3	lambda_cid14_p4	lambda_cid14_p5	/jointset/ground_pelvis/pelvis_tilt/accel	/jointset/ground_pelvis/pelvis_tx/accel	/jointset/ground_pelvis/pelvis_ty/accel	/jointset/hip_r/hip_flexion_r/accel	/jointset/hip_r/hip_adduction_r/accel	/jointset/hip_r/hip_rotation_r/accel	/jointset/back/lumbar_extension/accel	/jointset/patellofemoral_r/patellar_flexion_r/accel	/jointset/knee_r/knee_flexion_r/accel	/jointset/knee_r/knee_adduction_r/accel	/jointset/knee_r/knee_rotation_r/accel	/jointset/ankle_r/ankle_angle_r/accel	/jointset/subtalar_r/subtalar_angle_r/accel	gamma_cid13_p0	gamma_cid14_p0	gamma_cid14_p1	gamma_cid14_p2	gamma_cid14_p3	gamma_cid14_p4	gamma_cid14_p5
0.5	-0.1242318983950555	0.03040757630497817	0.8133854379995624	0.8564041990059481	-0.2346012591488425	-0.09843848304819476	-0.6433312120261881	0.9388485421796567	0.9388485421796501	-0.002207551133681371	0.1745320157402652	0.2908068029405377	0.1186966614006039	-0.3309030430283273	-0.1945625462514194	-0.4728024274008747	1.775053318671965	-0.04714499798456974	0.3657050718466821	-0.7368992444584699	1.892602245003324	1.892602245003322	-0.2117229980936195	-3.330473248554247e-05	0.5271419288696323	0.1191239919156469	-0.1877652312704618	0.009962722479425161	0.02397876622110173	-0.2917660175894022	0.004026892302595527	-0.008642886300567658	0.2342235148938795	-9.013786712775628	-41.80642783278235	-9.925849198919764	0.6933685701473515	-3.770993351790957	-642.5268658155104	57.72972727039325	0.2824215782364405	0.5562008670804672	-0.3880543645420117	-1.204029096719628	-0.01302523121671473	-0.06666867334552939	1.743026108755339	-1.317050147587399	-1.317050147587404	0.7348232432114769	-0.03139338475140233	-0.5100679848772952	-0.1193458773619287	-6.845152696069696e-08	5.39417911165367e-08	1.477280821345472e-06	6.210252227283206e-08	-1.820672486504342e-07	-1.205416362528754e-07	9.709589547958138e-07
0.51	-0.1275261166167666	0.02848992842840758	0.8086390793017946	0.8740918416442156	-0.2350736734020295	-0.0947862871619659	-0.6506124388632226	0.9577058799435932	0.9577058799435824	-0.004287981807426841	0.1745318618561106	0.2960517254989714	0.1198810683597076	-0.3278886404676237	-0.188951219352466	-0.4763650947900134	1.762240580162993	-0.047318956812088	0.3647188141766188	-0.7192624060416056	1.878611097896727	1.878611097896726	-0.2043623109114586	-7.958129055868742e-08	0.5217695487335299	0.1177539896787384	-0.1937978859958943	0.01122729133711333	0.02420209939626279	-0.2964182732941908	0.00297145711236788	-0.008320116934490441	0.239903075292888	-8.040927030421566	-42.43034755131599	-10.04289541748325	0.8810588032268492	-3.692981499463819	-647.1111563431499	57.8220372337505	0.3187500911231426	0.5659341272026679	-0.3247669141575807	-1.355083967489066	-0.01666041439976859	-0.1170291731385293	1.786570244163578	-1.478262500097674	-1.478262500097489	0.7370223287156175	0.02032304625109548	-0.5618205490749439	-0.1461064817531849	-7.966278791148543e-08	3.857941082366977e-08	1.470691830921677e-06	-6.037823106425479e-08	-1.744502575577451e-07	-1.301187005999251e-07	9.837327951428467e-07
0.52	-0.1307886307136446	0.02662886092600658	0.8038602151325237	0.8916443193494918	-0.2355472430846714	-0.09114443882429522	-0.6577147858088862	0.9764156831348827	0.9764156831348687	-0.006294739434756316	0.1745319687397077	0.3012407247518244	0.1210517194794622	-0.3245622180614872	-0.1832464714174992	-0.4793035217014647	1.748020332073897	-0.04737608387481817	0.3636355621344823	-0.701123266184279	1.86309533047406	1.86309533047406	-0.1969883888094071	1.884881775006437e-05	0.5159572677534984	0.1163728240459152	-0.1998305407213261	0.01249186019479864	0.0244254325714305	-0.3010705289989791	0.001916021922138949	-0.007997347568418082	0.2455826356918973	-7.125490581900381	-43.05259448768259	-10.1538297798569	1.061128343387391	-3.64247901646648	-651.6831290077996	57.94805767514012	0.3448255473230233	0.5748850742831544	-0.2632062690045341	-1.485531012744658	0.0103411217409048	-0.08606754776016065	1.843486396847813	-1.621974210801149	-1.621974210801151	0.7374702271896114	-0.03425273518227984	-0.5980481536631135	-0.1215785565448632	-7.923204130318504e-08	3.161039343659632e-08	1.386294956267716e-06	-1.046810815699039e-07	-1.639379533392589e-07	-1.243734074186507e-07	9.367165423238977e-07
0.53	-0.1340163607001861	0.02482524118363177	0.7990551178275435	0.90904767875126	-0.2360208325044449	-0.08751372372930462	-0.6646333553161028	0.9949628392798052	0.9949628392797988	-0.008227564808574016	0.1745321087971886	0.3063694385423035	0.1222084490952228	-0.3209326830543524	-0.1774679370947702	-0.4816080883524628	1.732422315165049	-0.04732495270464643	0.3624853325817962	-0.6825221523348785	1.84608980651198	1.84608980651198	-0.1895787995005162	1.272564925263474e-05	0.5097155841001193	0.1149675088112911	-0.2057732949045956	0.01368442933294989	0.02461003460113221	-0.3057953333352922	0.0007482504336225943	-0.007723018718497855	0.2511501153910278	-6.268535699838298	-43.72342038826703	-10.29276725598119	1.243902500974731	-3.491225573940306	-656.3401974517797	58.04561875600363	0.3796860040334895	0.5807369224380525	-0.1979284929590592	-1.631317812050802	0.005084407459266969	-0.1329497861406039	1.878696317592556	-1.776739487532364	-1.776739487532334	0.7425682148229373	0.01675700756059731	-0.6477526105353097	-0.1506514292429209	-7.855620441184896e-08	2.493301013426922e-08	1.296543176062271e-06	-1.463427832927478e-07	-1.532190551047026e-07	-1.172941140824053e-07	8.831115080706029e-07
0.54	-0.1372062616313325	0.02307968664671839	0.7942302055300909	0.9262881818275198	-0.2364933935539594	-0.08389520075526137	-0.671363859197104	1.013332560585382	1.013332560585384	-0.01008632130289116	0.1745322974460354	0.3114336306683767	0.1233509968741725	-0.3169964069822267	-0.1716334303252126	-0.4832665201959274	1.715449066972364	-0.04717040982231314	0.361197137944398	-0.6635101409412245	1.827608362605065	1.827608362605065	-0.1821746129082596	2.856709051788582e-05	0.5030529348723403	0.1135364566837982	-0.2117160490878638	0.01487699847109932	0.02479463663084073	-0.310520137671605	-0.0004195210548948655	-0.007448689868581037	0.2567175950901594	-5.47054913177357	-44.39285787651588	-10.42551015697122	1.41889131147852	-3.368798889985223	-660.9903910818285	58.17848596889971	0.4061737603211752	0.5860795636488707	-0.1339793074978329	-1.760577269512212	0.03102346417321996	-0.11366056470258	1.925665905698458	-1.917158199768087	-1.917158199768088	0.7363896838627624	-0.02985981322974899	-0.6822412685431071	-0.1267259351186099	-7.760920380311172e-08	1.857828581932107e-08	1.200866819501992e-06	-1.850823629580201e-07	-1.422715847672601e-07	-1.087389056810856e-07	8.222167581878189e-07
0.55	-0.1403553578008044	0.02139270025507061	0.7893919509480769	0.9433522583003296	-0.2369638816753555	-0.08029000541928072	-0.6779022871738837	1.031510245737615	1.031510245737615	-0.01187096859115002	0.174532557963256	0.3164291579654404	0.1244791274669478	-0.3127762596108807	-0.1657595448066132	-0.4842743918267319	1.697146075034729	-0.04690983666637415	0.3598177674365043	-0.6441215402666317	1.807692217369123	1.807692217369121	-0.1747615406807477	2.448172158939652e-05	0.4959880877588662	0.112086790303306	-0.2174662448362122	0.01594642060867182	0.02495589911059804	-0.3153969579010041	-0.001531329829214577	-0.007225375406768844	0.2620892359983395	-4.73155707384866	-45.05169442071536	-10.57884755058905	1.597500269697744	-3.193199619230862	-665.6517577559451	58.30205714126842	0.436922065278743	0.5886612656174911	-0.06771124832664054	-1.898181237930676	0.02621265052326825	-0.1538252194027851	1.953544270542906	-2.064294837842845	-2.064294837843237	0.7429168039362235	0.01445495104017274	-0.728305141942413	-0.1543621880768487	-7.658669198146187e-08	1.25183814243708e-08	1.107308280945528e-06	-2.200461349137057e-07	-1.314105916603186e-07	-1.006072281495502e-07	7.598480559719983e-07
